PathFileType	4	(X/Y/Z)	 s07c0102.trc
DataRate	CameraRate	NumFrames	NumMarkers	Units	OrigDataRate	OrigDataStartFrame	OrigNumFrames
200	200	4	48	mm	200	501	2000
Frame#	Time	racr			lacr			c7			jug			rlel			rdr			llel			ldr			s2			lic			ric			lasi			rasi			rpsi			lpsi			rgt			lgt			rth1			rth2			rth3			rth4			rlfc			rmfc			rsh1			rsh2			rsh3			rsh4			rlmal			rcal			rtoe			rmt5			lth1			lth2			lth4			lth3			llfc			lmfc			lsh1			lsh2			lsh3			lsh4			llmal			lcal			ltoe			lmt5			SBIKE			LBIKE			RBIKE			
		X1	Y1	Z1	X2	Y2	Z2	X3	Y3	Z3	X4	Y4	Z4	X5	Y5	Z5	X6	Y6	Z6	X7	Y7	Z7	X8	Y8	Z8	X9	Y9	Z9	X10	Y10	Z10	X11	Y11	Z11	X12	Y12	Z12	X13	Y13	Z13	X14	Y14	Z14	X15	Y15	Z15	X16	Y16	Z16	X17	Y17	Z17	X18	Y18	Z18	X19	Y19	Z19	X20	Y20	Z20	X21	Y21	Z21	X22	Y22	Z22	X23	Y23	Z23	X24	Y24	Z24	X25	Y25	Z25	X26	Y26	Z26	X27	Y27	Z27	X28	Y28	Z28	X29	Y29	Z29	X30	Y30	Z30	X31	Y31	Z31	X32	Y32	Z32	X33	Y33	Z33	X34	Y34	Z34	X35	Y35	Z35	X36	Y36	Z36	X37	Y37	Z37	X38	Y38	Z38	X39	Y39	Z39	X40	Y40	Z40	X41	Y41	Z41	X42	Y42	Z42	X43	Y43	Z43	X44	Y44	Z44	X45	Y45	Z45	X46	Y46	Z46	X47	Y47	Z47	X48	Y48	Z48	
501	2.5050	475.697179	1449.536431	-76.154973	485.796109	1457.604022	-330.937156	432.029164	1515.007725	-209.410314	404.972035	1372.609624	-226.269284	512.089780	1114.676599	37.509190	721.758724	919.701457	-49.946749	540.477008	1144.863486	-487.467113	728.916058	924.471341	-402.309117	-112.441730	1216.110830	-241.659835	40.868553	1282.013017	-381.005559	50.289527	1267.188547	-88.134267	75.963617	1204.547035	-356.737669	69.208931	1219.579045	-110.087704	-89.732738	1256.643664	-189.810642	-79.423497	1268.385845	-297.110646	11.514309	1144.017984	-47.085763	-1.399518	1118.790971	-408.520954	152.953819	1084.270334	-53.372168	236.570802	1060.520910	-65.721155	299.884048	1003.337101	-62.306943	251.086084	1088.648309	-84.685977	399.871479	903.519765	-93.779542	388.507770	886.669895	-199.989111	304.465685	798.805310	-68.810730	259.154341	724.551813	-83.654294	183.953281	679.812797	-78.090054	271.688044	714.637923	-121.538674	84.647965	586.849074	-75.032877	13.306780	613.487186	-109.235619	164.175981	364.629534	-123.239788	93.966234	409.594964	-53.809295	60.061195	1009.316869	-419.946628	126.822540	951.553250	-422.454698	156.909020	971.802915	-415.232845	155.905553	867.676066	-418.227121	247.495751	719.141683	-390.416500	238.554194	698.287592	-299.132129	218.480904	573.492014	-415.256387	227.945455	490.081936	-396.834630	194.327700	406.247031	-403.480989	229.722817	492.694447	-354.135106	166.872518	271.072532	-399.167671	104.493474	221.667668	-368.014981	393.583918	246.361734	-354.624706	319.518154	209.160499	-419.926630	-258.453381	973.693186	-233.940339	-75.660775	83.446079	-438.464526	-82.552411	79.465312	-41.091679	
502	2.5100	473.776418	1452.552736	-74.706326	486.517130	1459.871178	-328.538627	430.706038	1518.566003	-208.278055	403.863627	1376.193837	-225.755787	512.443211	1116.469535	36.676113	722.139468	920.473303	-50.373901	542.467224	1147.165854	-485.171676	729.309835	924.701731	-402.124013	-111.255816	1215.735433	-242.105435	41.690024	1281.845695	-382.311492	50.711413	1268.967234	-89.206002	77.100283	1204.475806	-358.110916	70.352475	1221.369039	-111.370742	-89.005880	1256.840058	-190.391280	-78.623688	1267.955262	-298.100072	13.867228	1146.073409	-47.355460	-1.104391	1118.242671	-408.561472	155.687122	1087.812612	-53.866302	239.644410	1064.870854	-66.263915	303.675804	1008.547269	-63.017590	253.750758	1093.181551	-85.347898	404.229303	909.763100	-94.847996	392.890685	892.934741	-200.959833	309.293159	805.054688	-69.534191	263.652082	731.123650	-84.517624	187.812492	686.929779	-78.311166	275.972640	721.146125	-122.605057	88.203445	593.426122	-75.527506	16.609583	619.243307	-109.331876	170.726951	372.272890	-123.478775	100.059463	416.576761	-54.013853	58.831853	1008.346037	-420.785786	124.616297	949.495135	-424.263539	155.144311	969.288924	-417.476213	152.320557	865.097720	-420.155257	242.332010	715.578715	-393.073553	234.524150	694.873925	-302.268986	213.225736	569.952210	-417.278075	223.088845	486.650039	-398.740853	189.658457	402.678044	-404.746734	225.830033	489.252451	-356.127756	162.727689	267.629412	-399.540301	99.694685	219.598809	-368.203277	389.178858	238.699234	-354.710262	314.702644	202.529749	-419.708555	-258.624483	973.722051	-233.785008	-75.665246	83.474022	-438.484757	-82.595986	79.580466	-41.094920	
503	2.5150	471.966115	1455.428944	-73.318045	489.175938	1463.536139	-332.337499	429.454875	1521.828940	-207.065184	404.982310	1379.192490	-225.881230	513.012028	1118.221093	35.715119	722.488119	921.391936	-50.855134	544.556141	1149.696305	-483.733523	729.647636	924.855044	-401.892891	-110.127809	1215.375348	-242.560071	42.417409	1281.688777	-383.546259	50.966943	1270.606857	-90.278436	78.128018	1204.517724	-359.484631	71.427854	1223.115917	-112.835629	-88.249212	1256.917394	-191.075538	-77.842503	1267.557005	-299.076271	16.370685	1147.935530	-47.760085	-0.935046	1117.801415	-408.554334	158.370180	1091.001380	-54.239368	242.576526	1069.175001	-66.774174	307.158872	1013.491264	-63.715559	256.237722	1097.427290	-86.106999	408.455366	915.945637	-95.920268	396.968086	899.149730	-202.010903	313.794089	811.185480	-70.380655	267.882642	737.547218	-85.424398	191.721623	693.644356	-78.786954	280.156124	727.514853	-123.567271	91.935338	599.713075	-75.970117	20.137751	624.622107	-109.193337	177.586282	379.743437	-123.660096	106.482413	423.176034	-54.202806	57.570454	1007.391717	-421.547548	122.303847	947.467199	-426.042273	153.239531	966.842649	-419.736898	148.783305	862.683024	-421.918315	237.198654	712.161474	-395.534201	230.726729	691.747613	-304.659826	208.074463	566.748046	-419.183386	218.276115	483.440048	-400.434714	184.854858	399.397650	-405.991152	221.741100	486.415650	-357.723191	158.401771	264.469595	-399.970020	94.664657	217.966191	-368.231241	384.433008	231.271948	-354.848365	309.593895	196.200903	-419.489475	-258.708861	973.819692	-233.905523	-75.666458	83.454862	-438.498503	-82.568773	79.637011	-41.117083	
504	2.5200	470.233475	1458.331918	-71.957954	489.710560	1465.259709	-329.400188	428.328632	1524.740021	-205.801547	404.105397	1382.081673	-224.833762	513.899421	1120.088140	34.809040	722.837693	922.317216	-51.279869	546.503770	1151.844492	-481.691758	730.051166	924.885984	-401.839127	-109.187384	1215.185932	-242.673514	43.108587	1281.552783	-384.789359	51.147356	1272.122378	-91.425468	79.035842	1204.624467	-360.873836	72.292148	1224.708420	-114.131680	-87.538549	1256.928361	-191.819487	-77.030789	1267.147263	-299.989013	18.722120	1149.790120	-48.090499	-0.898113	1117.239236	-408.529281	160.810282	1094.217454	-54.533006	245.247677	1073.213886	-67.408603	310.454600	1018.328440	-64.404646	258.477948	1101.649077	-86.940003	412.438109	922.089180	-97.244370	400.829351	905.248365	-203.056108	317.986912	817.224631	-71.322120	270.834475	743.520021	-87.830974	196.292488	699.532844	-80.256462	284.514187	733.698815	-124.461087	96.008552	605.506557	-76.404052	23.760379	629.493091	-108.926716	183.309133	385.921425	-125.443946	113.215381	429.366511	-54.337335	56.267918	1006.552675	-422.195599	119.976314	945.640665	-427.693981	151.177183	964.200047	-421.539885	145.256164	860.426161	-423.540885	232.322036	709.157101	-397.588050	226.859761	688.929164	-306.763660	202.991669	563.936849	-420.769683	213.375826	480.567335	-401.967030	179.953100	396.470843	-407.018374	216.575416	483.337242	-359.693250	153.830170	261.625516	-400.275662	89.406597	216.667987	-368.383119	379.417435	224.059189	-355.026385	304.132266	190.270220	-419.359552	-258.780676	973.788605	-234.006474	-75.697147	83.472439	-438.487491	-82.556019	79.667695	-41.130454	
